<?xml version="1.0" standalone="no"?><!DOCTYPE svg PUBLIC "-//W3C//DTD SVG 1.1//EN" "http://www.w3.org/Graphics/SVG/1.1/DTD/svg11.dtd"><svg class="icon" width="200px" height="200.00px" viewBox="0 0 1024 1024" version="1.1" xmlns="http://www.w3.org/2000/svg"><path d="M672 455.253333a64 64 0 1 0 106.666667 0V272.597333c78.421333 10.666667 134.4 36.138667 168.704 77.738667 47.744 57.984 44.16 135.722667 22.058666 213.12-42.581333 149.034667-39.296 149.290667-86.698666 259.84-27.306667 63.744-77.354667 100.650667-124.629334 121.344-46.890667 20.48-93.098667 26.026667-118.101333 26.026667H384c-25.173333 0-72.32-6.016-119.466667-26.666667-47.530667-20.778667-98.133333-57.856-123.562666-121.472-43.178667-107.946667-43.52-109.013333-86.442667-259.072-22.101333-77.397333-25.642667-155.136 22.101333-213.12 34.261333-41.6 90.282667-67.072 168.704-77.738667v182.613334a64 64 0 1 0 106.666667 0V266.666667h320v188.586666zM512 53.333333c54.869333 0 114.261333 17.834667 160.512 47.786667 45.568 29.525333 84.821333 75.392 84.821333 133.546667v256a32 32 0 0 1-64 0v-256c0-27.178667-18.858667-55.978667-55.637333-79.786667-36.096-23.381333-83.413333-37.546667-125.696-37.546667-42.24 0-89.6 14.165333-125.696 37.546667-36.778667 23.808-55.637333 52.608-55.637333 79.786667v256a32 32 0 0 1-64 0v-256c0-58.154667 39.253333-104.021333 84.821333-133.546667C397.738667 71.168 457.130667 53.333333 512 53.333333z" fill="#0d1114" /><path d="M341.333333 490.666667a42.666667 42.666667 0 1 1-85.333333 0 42.666667 42.666667 0 0 1 85.333333 0zM768 490.666667a42.666667 42.666667 0 1 1-85.333333 0 42.666667 42.666667 0 0 1 85.333333 0z" fill="#0d1114" /></svg>