<?xml version="1.0" standalone="no"?><!DOCTYPE svg PUBLIC "-//W3C//DTD SVG 1.1//EN" "http://www.w3.org/Graphics/SVG/1.1/DTD/svg11.dtd"><svg class="icon" width="200px" height="200.00px" viewBox="0 0 1024 1024" version="1.1" xmlns="http://www.w3.org/2000/svg"><path d="M824.32 199.68m-199.68 0a199.68 199.68 0 1 0 399.36 0 199.68 199.68 0 1 0-399.36 0Z" fill="#A9C6FF" /><path d="M823.808 164.864c23.04-6.144 43.52 14.848 37.888 37.888L599.04 1000.96c-6.144 23.04-34.816 30.72-51.2 13.824l-220.16-317.952L9.216 479.744c-16.896-16.896-9.216-45.568 13.824-51.712l800.768-263.168z" fill="#1560F7" /><path d="M433.152 543.744l152.064-152.576c13.824-13.824 36.864-13.824 50.688 0s13.824 36.864 0 50.688l-152.064 152.576c-13.824 13.824-36.864 13.824-50.688 0s-13.824-36.864 0-50.688z" fill="#FFFFFF" /></svg>